<svg width="215" height="62" viewBox="0 0 215 62" fill="none" xmlns="http://www.w3.org/2000/svg">
<path d="M34.8777 6.08042H44.725V54.6236H34.8777V51.9884C33.352 53.1442 31.6877 54.0226 29.8846 54.6236C28.1278 55.2708 26.3017 55.5945 24.4062 55.5945C20.8001 55.5945 17.6795 54.8085 15.0443 53.2366C12.4553 51.6648 10.4674 49.515 9.08043 46.7873C7.69349 44.0134 7.00001 40.8697 7.00001 37.3561C7.00001 33.8425 7.69349 30.6987 9.08043 27.9248C10.4674 25.1047 12.4553 22.9087 15.0443 21.3368C17.6795 19.765 20.8001 18.979 24.4062 18.979C26.2555 18.979 28.0816 19.3027 29.8846 19.9499C31.6877 20.5509 33.352 21.4293 34.8777 22.5851V6.08042ZM25.7238 46.1632C28.3128 46.1632 30.4857 45.331 32.2425 43.6667C33.9993 42.0024 34.8777 39.8526 34.8777 37.2174C34.8777 34.6747 33.9993 32.5942 32.2425 30.9761C30.4857 29.358 28.3128 28.549 25.7238 28.549C23.1348 28.549 21.0082 29.358 19.3438 30.9761C17.6795 32.5942 16.8473 34.7209 16.8473 37.3561C16.8473 39.9913 17.6795 42.1179 19.3438 43.7361C21.0082 45.3542 23.1348 46.1632 25.7238 46.1632Z" fill="#ECAC45"/>
<path d="M75.9281 19.9499H85.7754V54.6236H75.9281V51.9884C74.4024 53.1442 72.715 54.0226 70.8657 54.6236C69.0627 55.2708 67.2365 55.5945 65.3872 55.5945C61.7812 55.5945 58.6605 54.8085 56.0253 53.2366C53.4364 51.6648 51.4484 49.515 50.0615 46.7873C48.6745 44.0134 47.9811 40.8697 47.9811 37.3561C47.9811 33.8425 48.6745 30.6987 50.0615 27.9248C51.4484 25.1047 53.4364 22.9087 56.0253 21.3368C58.6605 19.765 61.7812 18.979 65.3872 18.979C67.2827 18.979 69.132 19.3027 70.935 19.9499C72.7381 20.5971 74.4024 21.4987 75.9281 22.6544V19.9499ZM66.7049 46.1632C69.2938 46.1632 71.4667 45.331 73.2235 43.6667C74.9803 42.0024 75.8587 39.8526 75.8587 37.2174C75.8587 34.6747 74.9803 32.5942 73.2235 30.9761C71.4667 29.358 69.2938 28.549 66.7049 28.549C64.1159 28.549 61.9892 29.358 60.3249 30.9761C58.6606 32.5942 57.8284 34.7209 57.8284 37.3561C57.8284 39.9913 58.6606 42.1179 60.3249 43.7361C61.9892 45.3542 64.1159 46.1632 66.7049 46.1632Z" fill="#ECAC45"/>
<path d="M112.577 19.2564L111.884 28.6183C111.56 28.4796 111.028 28.4103 110.289 28.4103C107.468 28.4103 105.157 29.2193 103.354 30.8374C101.597 32.4093 100.719 34.4897 100.719 37.0787V54.6236H90.802V19.9499H100.719V25.567C101.551 23.764 102.892 22.2615 104.741 21.0595C106.59 19.8574 108.832 19.2564 111.468 19.2564H112.577Z" fill="#ECAC45"/>
<path d="M121.066 15.2343C119.217 15.2343 117.761 14.7488 116.697 13.778C115.68 12.7609 115.172 11.3971 115.172 9.68649C115.172 7.92968 115.68 6.54274 116.697 5.52564C117.761 4.50855 119.217 4 121.066 4C122.869 4 124.302 4.50855 125.366 5.52564C126.429 6.54274 126.961 7.92968 126.961 9.68649C126.961 11.3971 126.429 12.7609 125.366 13.778C124.302 14.7488 122.869 15.2343 121.066 15.2343ZM116.073 54.6236V19.9499H125.99V54.6236H116.073Z" fill="#ECAC45"/>
<path d="M156.273 19.9499H166.121V54.6236H156.273V51.9884C154.748 53.1442 153.06 54.0226 151.211 54.6236C149.408 55.2708 147.582 55.5945 145.733 55.5945C142.127 55.5945 139.006 54.8085 136.371 53.2366C133.782 51.6648 131.794 49.515 130.407 46.7873C129.02 44.0134 128.327 40.8697 128.327 37.3561C128.327 33.8425 129.02 30.6987 130.407 27.9248C131.794 25.1047 133.782 22.9087 136.371 21.3368C139.006 19.765 142.127 18.979 145.733 18.979C147.628 18.979 149.477 19.3027 151.28 19.9499C153.084 20.5971 154.748 21.4987 156.273 22.6544V19.9499ZM147.05 46.1632C149.639 46.1632 151.812 45.331 153.569 43.6667C155.326 42.0024 156.204 39.8526 156.204 37.2174C156.204 34.6747 155.326 32.5942 153.569 30.9761C151.812 29.358 149.639 28.549 147.05 28.549C144.461 28.549 142.335 29.358 140.67 30.9761C139.006 32.5942 138.174 34.7209 138.174 37.3561C138.174 39.9913 139.006 42.1179 140.67 43.7361C142.335 45.3542 144.461 46.1632 147.05 46.1632Z" fill="#ECAC45"/>
<path d="M189.455 18.979C191.489 18.979 193.547 19.4182 195.627 20.2966C197.707 21.175 199.487 22.7238 200.967 24.9429C202.446 27.162 203.186 30.144 203.186 33.8887V54.6236H193.269V33.8887C193.269 31.6696 192.645 30.0746 191.397 29.1038C190.195 28.1329 188.739 27.6475 187.028 27.6475C185.317 27.6475 183.884 28.2485 182.728 29.4505C181.619 30.6525 181.064 32.5711 181.064 35.2063V54.6236H171.147V19.9499H181.064V22.3077C183.699 20.0886 186.496 18.979 189.455 18.979Z" fill="#ECAC45"/>
<path d="M36.2646 6.7739H46.112V55.3171H36.2646V52.6819C34.739 53.8377 33.0746 54.7161 31.2716 55.3171C29.5148 55.9643 27.6887 56.2879 25.7932 56.2879C22.1871 56.2879 19.0665 55.502 16.4313 53.9301C13.8423 52.3582 11.8543 50.2085 10.4674 47.4808C9.08045 44.7069 8.38698 41.5632 8.38698 38.0496C8.38698 34.536 9.08045 31.3922 10.4674 28.6183C11.8543 25.7982 13.8423 23.6022 16.4313 22.0303C19.0665 20.4585 22.1871 19.6725 25.7932 19.6725C27.6424 19.6725 29.4686 19.9961 31.2716 20.6434C33.0746 21.2444 34.739 22.1228 36.2646 23.2786V6.7739ZM27.1108 46.8567C29.6997 46.8567 31.8726 46.0245 33.6294 44.3602C35.3862 42.6958 36.2646 40.5461 36.2646 37.9109C36.2646 35.3681 35.3862 33.2877 33.6294 31.6696C31.8726 30.0515 29.6997 29.2425 27.1108 29.2425C24.5218 29.2425 22.3951 30.0515 20.7308 31.6696C19.0665 33.2877 18.2343 35.4144 18.2343 38.0496C18.2343 40.6848 19.0665 42.8114 20.7308 44.4295C22.3951 46.0476 24.5218 46.8567 27.1108 46.8567Z" fill="#27A185"/>
<path d="M77.315 20.6434H87.1623V55.3171H77.315V52.6819C75.7894 53.8377 74.1019 54.7161 72.2527 55.3171C70.4496 55.9643 68.6235 56.2879 66.7742 56.2879C63.1681 56.2879 60.0475 55.502 57.4123 53.9301C54.8233 52.3582 52.8354 50.2085 51.4484 47.4808C50.0615 44.7069 49.368 41.5632 49.368 38.0496C49.368 34.536 50.0615 31.3922 51.4484 28.6183C52.8354 25.7982 54.8233 23.6022 57.4123 22.0303C60.0475 20.4585 63.1681 19.6725 66.7742 19.6725C68.6697 19.6725 70.519 19.9961 72.322 20.6434C74.125 21.2906 75.7894 22.1921 77.315 23.3479V20.6434ZM68.0918 46.8567C70.6808 46.8567 72.8537 46.0245 74.6105 44.3602C76.3673 42.6958 77.2457 40.5461 77.2457 37.9109C77.2457 35.3681 76.3673 33.2877 74.6105 31.6696C72.8537 30.0515 70.6808 29.2425 68.0918 29.2425C65.5028 29.2425 63.3762 30.0515 61.7119 31.6696C60.0475 33.2877 59.2153 35.4144 59.2153 38.0496C59.2153 40.6848 60.0475 42.8114 61.7119 44.4295C63.3762 46.0476 65.5028 46.8567 68.0918 46.8567Z" fill="#27A185"/>
<path d="M113.964 19.9499L113.271 29.3118C112.947 29.1731 112.415 29.1038 111.676 29.1038C108.855 29.1038 106.544 29.9128 104.741 31.5309C102.984 33.1028 102.106 35.1832 102.106 37.7722V55.3171H92.1889V20.6434H102.106V26.2605C102.938 24.4575 104.279 22.955 106.128 21.7529C107.977 20.5509 110.219 19.9499 112.854 19.9499H113.964Z" fill="#27A185"/>
<path d="M122.453 15.9278C120.604 15.9278 119.148 15.4423 118.084 14.4715C117.067 13.4544 116.559 12.0905 116.559 10.38C116.559 8.62317 117.067 7.23622 118.084 6.21912C119.148 5.20203 120.604 4.69348 122.453 4.69348C124.256 4.69348 125.689 5.20203 126.753 6.21912C127.816 7.23622 128.348 8.62317 128.348 10.38C128.348 12.0905 127.816 13.4544 126.753 14.4715C125.689 15.4423 124.256 15.9278 122.453 15.9278ZM117.46 55.3171V20.6434H127.377V55.3171H117.46Z" fill="#27A185"/>
<path d="M157.66 20.6434H167.508V55.3171H157.66V52.6819C156.135 53.8377 154.447 54.7161 152.598 55.3171C150.795 55.9643 148.969 56.2879 147.12 56.2879C143.514 56.2879 140.393 55.502 137.758 53.9301C135.169 52.3582 133.181 50.2085 131.794 47.4808C130.407 44.7069 129.713 41.5632 129.713 38.0496C129.713 34.536 130.407 31.3922 131.794 28.6183C133.181 25.7982 135.169 23.6022 137.758 22.0303C140.393 20.4585 143.514 19.6725 147.12 19.6725C149.015 19.6725 150.864 19.9961 152.667 20.6434C154.47 21.2906 156.135 22.1921 157.66 23.3479V20.6434ZM148.437 46.8567C151.026 46.8567 153.199 46.0245 154.956 44.3602C156.713 42.6958 157.591 40.5461 157.591 37.9109C157.591 35.3681 156.713 33.2877 154.956 31.6696C153.199 30.0515 151.026 29.2425 148.437 29.2425C145.848 29.2425 143.722 30.0515 142.057 31.6696C140.393 33.2877 139.561 35.4144 139.561 38.0496C139.561 40.6848 140.393 42.8114 142.057 44.4295C143.722 46.0476 145.848 46.8567 148.437 46.8567Z" fill="#27A185"/>
<path d="M190.842 19.6725C192.876 19.6725 194.933 20.1117 197.014 20.9901C199.094 21.8685 200.874 23.4173 202.354 25.6364C203.833 27.8555 204.573 30.8374 204.573 34.5822V55.3171H194.656V34.5822C194.656 32.3631 194.032 30.7681 192.784 29.7972C191.582 28.8264 190.125 28.3409 188.415 28.3409C186.704 28.3409 185.271 28.942 184.115 30.144C183.006 31.346 182.451 33.2646 182.451 35.8998V55.3171H172.534V20.6434H182.451V23.0012C185.086 20.7821 187.883 19.6725 190.842 19.6725Z" fill="#27A185"/>
</svg>
