<svg width="48" height="48" viewBox="0 0 48 48" fill="none" xmlns="http://www.w3.org/2000/svg">
<path d="M24.423 5H31.9904V42.3038H24.423V40.2787C23.2506 41.1669 21.9716 41.8419 20.5861 42.3038C19.236 42.8012 17.8327 43.0498 16.3761 43.0498C13.6049 43.0498 11.2068 42.4459 9.18177 41.238C7.19223 40.03 5.66455 38.378 4.59873 36.2819C3.53291 34.1502 3 31.7344 3 29.0343C3 26.3342 3.53291 23.9183 4.59873 21.7867C5.66455 19.6195 7.19223 17.932 9.18177 16.724C11.2068 15.5161 13.6049 14.9121 16.3761 14.9121C17.7972 14.9121 19.2005 15.1608 20.5861 15.6582C21.9716 16.1201 23.2506 16.7951 24.423 17.6833V5ZM17.3886 35.8023C19.3781 35.8023 21.0479 35.1628 22.398 33.8838C23.748 32.6048 24.423 30.9528 24.423 28.9277C24.423 26.9737 23.748 25.375 22.398 24.1315C21.0479 22.888 19.3781 22.2663 17.3886 22.2663C15.3991 22.2663 13.7648 22.888 12.4858 24.1315C11.2068 25.375 10.5673 27.0092 10.5673 29.0343C10.5673 31.0593 11.2068 32.6936 12.4858 33.9371C13.7648 35.1805 15.3991 35.8023 17.3886 35.8023Z" fill="#27A185"/>
<path d="M35.7465 38.8931C35.7465 37.5786 36.0841 36.5839 36.7591 35.9088C37.4696 35.1983 38.4644 34.843 39.7434 34.843C41.0224 34.843 41.9994 35.1983 42.6744 35.9088C43.3849 36.5839 43.7402 37.5786 43.7402 38.8931C43.7402 40.2077 43.3849 41.2202 42.6744 41.9307C41.9994 42.6058 41.0224 42.9433 39.7434 42.9433C38.4644 42.9433 37.4696 42.6058 36.7591 41.9307C36.0841 41.2202 35.7465 40.2077 35.7465 38.8931Z" fill="#27A185"/>
<circle cx="40.004" cy="38.1404" r="4.99604" fill="#ECAC45"/>
</svg>
