<svg width="230" height="62" viewBox="0 0 230 62" fill="none" xmlns="http://www.w3.org/2000/svg">
<path d="M43.728 8.2H52.816V53H43.728V50.568C42.32 51.6347 40.784 52.4453 39.12 53C37.4987 53.5973 35.8133 53.896 34.064 53.896C30.736 53.896 27.856 53.1707 25.424 51.72C23.0347 50.2693 21.2 48.2853 19.92 45.768C18.64 43.208 18 40.3067 18 37.064C18 33.8213 18.64 30.92 19.92 28.36C21.2 25.7573 23.0347 23.7307 25.424 22.28C27.856 20.8293 30.736 20.104 34.064 20.104C35.7707 20.104 37.456 20.4027 39.12 21C40.784 21.5547 42.32 22.3653 43.728 23.432V8.2ZM35.28 45.192C37.6693 45.192 39.6747 44.424 41.296 42.888C42.9173 41.352 43.728 39.368 43.728 36.936C43.728 34.5893 42.9173 32.6693 41.296 31.176C39.6747 29.6827 37.6693 28.936 35.28 28.936C32.8907 28.936 30.928 29.6827 29.392 31.176C27.856 32.6693 27.088 34.632 27.088 37.064C27.088 39.496 27.856 41.4587 29.392 42.952C30.928 44.4453 32.8907 45.192 35.28 45.192Z" fill="#27A185"/>
<path d="M80.717 21H89.805V53H80.717V50.568C79.309 51.6347 77.7517 52.4453 76.045 53C74.381 53.5973 72.6957 53.896 70.989 53.896C67.661 53.896 64.781 53.1707 62.349 51.72C59.9597 50.2693 58.125 48.2853 56.845 45.768C55.565 43.208 54.925 40.3067 54.925 37.064C54.925 33.8213 55.565 30.92 56.845 28.36C58.125 25.7573 59.9597 23.7307 62.349 22.28C64.781 20.8293 67.661 20.104 70.989 20.104C72.7383 20.104 74.445 20.4027 76.109 21C77.773 21.5973 79.309 22.4293 80.717 23.496V21ZM72.205 45.192C74.5943 45.192 76.5997 44.424 78.221 42.888C79.8423 41.352 80.653 39.368 80.653 36.936C80.653 34.5893 79.8423 32.6693 78.221 31.176C76.5997 29.6827 74.5943 28.936 72.205 28.936C69.8157 28.936 67.853 29.6827 66.317 31.176C64.781 32.6693 64.013 34.632 64.013 37.064C64.013 39.496 64.781 41.4587 66.317 42.952C67.853 44.4453 69.8157 45.192 72.205 45.192Z" fill="#27A185"/>
<path d="M114.54 20.36L113.9 29C113.601 28.872 113.111 28.808 112.428 28.808C109.825 28.808 107.692 29.5547 106.028 31.048C104.407 32.4987 103.596 34.4187 103.596 36.808V53H94.444V21H103.596V26.184C104.364 24.52 105.601 23.1333 107.308 22.024C109.015 20.9147 111.084 20.36 113.516 20.36H114.54Z" fill="#27A185"/>
<path d="M121.543 16.648C119.836 16.648 118.492 16.2 117.511 15.304C116.572 14.3653 116.103 13.1067 116.103 11.528C116.103 9.90666 116.572 8.62666 117.511 7.688C118.492 6.74933 119.836 6.28 121.543 6.28C123.207 6.28 124.529 6.74933 125.511 7.688C126.492 8.62666 126.983 9.90666 126.983 11.528C126.983 13.1067 126.492 14.3653 125.511 15.304C124.529 16.2 123.207 16.648 121.543 16.648ZM116.935 53V21H126.087V53H116.935Z" fill="#27A185"/>
<path d="M154.867 21H163.955V53H154.867V50.568C153.459 51.6347 151.902 52.4453 150.195 53C148.531 53.5973 146.846 53.896 145.139 53.896C141.811 53.896 138.931 53.1707 136.499 51.72C134.11 50.2693 132.275 48.2853 130.995 45.768C129.715 43.208 129.075 40.3067 129.075 37.064C129.075 33.8213 129.715 30.92 130.995 28.36C132.275 25.7573 134.11 23.7307 136.499 22.28C138.931 20.8293 141.811 20.104 145.139 20.104C146.888 20.104 148.595 20.4027 150.259 21C151.923 21.5973 153.459 22.4293 154.867 23.496V21ZM146.355 45.192C148.744 45.192 150.75 44.424 152.371 42.888C153.992 41.352 154.803 39.368 154.803 36.936C154.803 34.5893 153.992 32.6693 152.371 31.176C150.75 29.6827 148.744 28.936 146.355 28.936C143.966 28.936 142.003 29.6827 140.467 31.176C138.931 32.6693 138.163 34.632 138.163 37.064C138.163 39.496 138.931 41.4587 140.467 42.952C142.003 44.4453 143.966 45.192 146.355 45.192Z" fill="#27A185"/>
<path d="M185.49 20.104C187.367 20.104 189.266 20.5093 191.186 21.32C193.106 22.1307 194.749 23.56 196.114 25.608C197.479 27.656 198.162 30.408 198.162 33.864V53H189.01V33.864C189.01 31.816 188.434 30.344 187.282 29.448C186.173 28.552 184.829 28.104 183.25 28.104C181.671 28.104 180.349 28.6587 179.282 29.768C178.258 30.8773 177.746 32.648 177.746 35.08V53H168.594V21H177.746V23.176C180.178 21.128 182.759 20.104 185.49 20.104Z" fill="#27A185"/>
<path d="M202.015 48.904C202.015 47.3253 202.42 46.1307 203.23 45.32C204.084 44.4667 205.279 44.04 206.814 44.04C208.35 44.04 209.524 44.4667 210.335 45.32C211.188 46.1307 211.615 47.3253 211.615 48.904C211.615 50.4827 211.188 51.6987 210.335 52.552C209.524 53.3627 208.35 53.768 206.814 53.768C205.279 53.768 204.084 53.3627 203.23 52.552C202.42 51.6987 202.015 50.4827 202.015 48.904Z" fill="#27A185"/>
<circle cx="206.44" cy="49" r="6" fill="#FF5E69"/>
<circle cx="121.44" cy="12" r="6" fill="#FF5E69"/>
</svg>
